<?xml version="1.0" standalone="no"?><!DOCTYPE svg PUBLIC "-//W3C//DTD SVG 1.1//EN" "http://www.w3.org/Graphics/SVG/1.1/DTD/svg11.dtd"><svg class="icon" width="256px" height="256.00px" viewBox="0 0 1024 1024" version="1.1" xmlns="http://www.w3.org/2000/svg"><path fill="#ffffff" d="M990.13 966.9L74.35 798.35V148.16l661.11-91.61L990.13 966.9zM154.35 731.73l724.21 133.29-201.32-719.64-522.89 72.46v513.89z"  /><path fill="#ffffff" d="M86.96 775.58m-86.15 0a86.15 86.15 0 1 0 172.3 0 86.15 86.15 0 1 0-172.3 0Z"  /><path fill="#ffffff" d="M86.96 153.58m-86.15 0a86.15 86.15 0 1 0 172.3 0 86.15 86.15 0 1 0-172.3 0Z"  /><path fill="#ffffff" d="M705.96 86.58m-86.15 0a86.15 86.15 0 1 0 172.3 0 86.15 86.15 0 1 0-172.3 0Z"  /><path fill="#ffffff" d="M937.96 937.58m-86.15 0a86.15 86.15 0 1 0 172.3 0 86.15 86.15 0 1 0-172.3 0Z"  /></svg>